#!OML:ASF H:\IndianDance\Patient Classification 1\Patient 1\Session 1\dancer.ASF
:FULLY-SPECIFIED
:DEGREES
2902
root -3.43488 15.4 14.899 1444.05 -132.454 1.92267
lowerback -1.18833 1.44062 -2.2528
upperback -4.31129 1.82737 1.91036
thorax -3.91447 0.973479 3.19685
lowerneck -20.7451 -0.448747 5.19505
upperneck 20.2346 -1.82542 -2.42022
head 9.77721 -0.781275 -1.97669
rclavicle -1.07667e-013 -8.74653e-015
rhumerus -37.5718 -10.3333 -77.9331
rradius 27.6876
rwrist 0.292745
rhand -17.4706 9.27052
rfingers 7.12502
rthumb 8.7812 -20.5268
lclavicle -1.07667e-013 -8.74653e-015
lhumerus -35.378 8.62288 72.6929
lradius 19.2258
lwrist -12.1683
lhand -33.8421 24.4051
lfingers 7.12502
lthumb -7.0271 -305.732
rfemur -17.2655 -0.262314 28.8151
rtibia 36.2958
rfoot -16.8464 -7.2005
rtoes 14.3315
lfemur -13.5872 15.4847 -19.5328
ltibia 54.1251
lfoot -4.01739 13.358
ltoes -8.20598
2903
root -3.45255 15.3937 14.8717 1443.87 -132.829 2.02918
lowerback -1.13212 1.4667 -2.12966
upperback -4.26709 1.86511 1.95269
thorax -3.89984 0.988523 3.16953
lowerneck -20.74 -0.387272 5.27122
upperneck 20.1798 -1.73988 -2.51026
head 9.75875 -0.746607 -2.00778
rclavicle -1.31695e-014 2.38542e-015
rhumerus -37.1402 -9.92595 -78.4649
rradius 28.4201
rwrist -0.66504
rhand -17.5379 9.37774
rfingers 7.12502
rthumb 8.71626 -20.4223
lclavicle -1.31695e-014 2.38542e-015
lhumerus -35.3711 8.76156 73.38
lradius 19.3531
lwrist -12.0373
lhand -33.7196 24.1114
lfingers 7.12502
lthumb -6.9089 -306.021
rfemur -16.8269 -0.141771 28.9256
rtibia 35.9993
rfoot -17.0158 -7.05036
rtoes 14.5726
lfemur -14.3161 15.1491 -19.1686
ltibia 55.7742
lfoot -3.03973 12.5145
ltoes -7.55028
2904
root -3.46989 15.3867 14.8457 1443.67 -133.173 2.14098
lowerback -1.04592 1.4969 -1.98232
upperback -4.2185 1.90875 1.98818
thorax -3.89675 1.00588 3.1206
lowerneck -20.7265 -0.353539 5.31433
upperneck 20.1041 -1.68796 -2.57316
head 9.73058 -0.727003 -2.02809
rclavicle 6.15736e-014 -5.56597e-015
rhumerus -36.7312 -9.60137 -78.954
rradius 29.1093
rwrist -1.50763
rhand -17.5717 9.48993
rfingers 7.12502
rthumb 8.68363 -20.3115
lclavicle 6.15736e-014 -5.56597e-015
lhumerus -35.3321 8.88136 74.1282
lradius 19.5067
lwrist -11.8573
lhand -33.4679 23.8125
lfingers 7.12502
lthumb -6.66591 -306.312
rfemur -16.3778 -0.0249961 29.0432
rtibia 35.7083
rfoot -17.187 -6.93589
rtoes 14.8679
lfemur -15.0631 14.7214 -18.8019
ltibia 57.4279
lfoot -2.09931 11.652
ltoes -6.3455
2905
root -3.48679 15.3786 14.8206 1443.41 -133.494 2.29569
lowerback -0.922249 1.52811 -1.79373
upperback -4.16093 1.95476 2.02665
thorax -3.90404 1.02333 3.05058
lowerneck -20.7102 -0.341637 5.334
upperneck 20.0062 -1.66504 -2.60764
head 9.69332 -0.719385 -2.03812
rclavicle -2.94201e-014 -1.70955e-014
rhumerus -36.3372 -9.31959 -79.4213
rradius 29.7592
rwrist -2.25617
rhand -17.6013 9.59062
rfingers 7.12502
rthumb 8.65511 -20.212
lclavicle -2.94201e-014 -1.70955e-014
lhumerus -35.2553 8.97474 74.9393
lradius 19.6732
lwrist -11.6078
lhand -33.1321 23.5039
lfingers 7.12502
lthumb -6.34175 -306.611
rfemur -15.91 0.102459 29.198
rtibia 35.4226
rfoot -17.3511 -6.86727
rtoes 15.1363
lfemur -15.8105 14.2237 -18.3995
ltibia 59.0698
lfoot -1.17413 10.76
ltoes -4.52059
2906
root -3.50353 15.3697 14.7965 1443.11 -133.795 2.48396
lowerback -0.765065 1.55902 -1.56669
upperback -4.09091 2.00173 2.06422
thorax -3.91569 1.04015 2.95713
lowerneck -20.695 -0.348928 5.33548
upperneck 19.8896 -1.67037 -2.6097
head 9.649 -0.722532 -2.03734
rclavicle 2.98922e-014 -7.95139e-016
rhumerus -35.9473 -9.08662 -79.8716
rradius 30.3553
rwrist -2.89194
rhand -17.6509 9.68122
rfingers 7.12502
rthumb 8.6072 -20.1233
lclavicle 2.98922e-014 -7.95139e-016
lhumerus -35.1396 9.04801 75.8003
lradius 19.8506
lwrist -11.3258
lhand -32.7065 23.1968
lfingers 7.12502
lthumb -5.93089 -306.906
rfemur -15.4227 0.236283 29.3812
rtibia 35.1469
rfoot -17.5051 -6.83382
rtoes 15.3398
lfemur -16.542 13.6723 -17.9707
ltibia 60.6769
lfoot -0.312688 9.86492
ltoes -2.32619
2907
root -3.52009 15.3607 14.7734 1442.75 -134.082 2.71015
lowerback -0.574663 1.59093 -1.30288
upperback -4.01181 2.05159 2.10443
thorax -3.93533 1.05739 2.84479
lowerneck -20.6699 -0.379985 5.31244
upperneck 19.7535 -1.70934 -2.57297
head 9.59528 -0.738799 -2.02312
rclavicle 3.55825e-014 4.37326e-015
rhumerus -35.5654 -8.88399 -80.3032
rradius 30.8937
rwrist -3.42867
rhand -17.7202 9.77249
rfingers 7.12502
rthumb 8.54035 -20.0348
lclavicle 3.55825e-014 4.37326e-015
lhumerus -34.9946 9.09712 76.7134
lradius 20.0422
lwrist -11.0119
lhand -32.2153 22.8766
lfingers 7.12502
lthumb -5.45657 -307.214
rfemur -14.9181 0.372093 29.5952
rtibia 34.8806
rfoot -17.6432 -6.82546
rtoes 15.4407
lfemur -17.2551 13.0802 -17.5161
ltibia 62.2314
lfoot 0.472176 8.96268
ltoes -0.124536
2908
root -3.5366 15.3513 14.7511 1442.36 -134.362 2.96122
lowerback -0.359153 1.62117 -1.01294
upperback -3.92078 2.10093 2.14423
thorax -3.95548 1.07362 2.71668
lowerneck -20.6399 -0.431653 5.26753
upperneck 19.5997 -1.77997 -2.49154
head 9.53392 -0.76642 -1.99367
rclavicle 8.42102e-014 2.78299e-015
rhumerus -35.1767 -8.69182 -80.7323
rradius 31.365
rwrist -3.87207
rhand -17.8401 9.84014
rfingers 7.12502
rthumb 8.4246 -19.9718
lclavicle 8.42102e-014 2.78299e-015
lhumerus -34.82 9.1174 77.6696
lradius 20.2503
lwrist -10.6737
lhand -31.6232 22.5683
lfingers 7.12502
lthumb -4.88493 -307.508
rfemur -14.4018 0.509897 29.8281
rtibia 34.6266
rfoot -17.7625 -6.82668
rtoes 15.4312
lfemur -17.9351 12.4648 -17.0495
ltibia 63.7073
lfoot 1.09079 8.06943
ltoes 1.8225
2909
root -3.55322 15.3418 14.7295 1441.93 -134.642 3.23844
lowerback -0.121307 1.64863 -0.698606
upperback -3.81806 2.14846 2.18391
thorax -3.97481 1.08824 2.57421
lowerneck -20.6037 -0.504255 5.20418
upperneck 19.4301 -1.88421 -2.36328
head 9.46555 -0.805904 -1.94916
rclavicle -1.10574e-014 5.1684e-015
rhumerus -34.776 -8.50151 -81.162
rradius 31.7555
rwrist -4.22232
rhand -17.9727 9.90682
rfingers 7.12502
rthumb 8.29667 -19.9103
lclavicle -1.10574e-014 5.1684e-015
lhumerus -34.6235 9.09576 78.6667
lradius 20.4774
lwrist -10.3166
lhand -30.9741 22.2429
lfingers 7.12502
lthumb -4.25811 -307.82
rfemur -13.8734 0.65837 30.0814
rtibia 34.3846
rfoot -17.8546 -6.84121
rtoes 15.2778
lfemur -18.5791 11.8463 -16.5726
ltibia 65.0828
lfoot 1.52319 7.17488
ltoes 3.15468
2910
root -3.57035 15.333 14.7084 1441.5 -134.934 3.50597
lowerback 0.124611 1.67535 -0.385761
upperback -3.70488 2.19631 2.2168
thorax -3.98743 1.10311 2.42531
lowerneck -20.5675 -0.596993 5.11877
upperneck 19.2543 -2.02068 -2.18626
head 9.39498 -0.856697 -1.88844
rclavicle -4.29375e-014 1.27222e-014
rhumerus -34.3596 -8.29673 -81.5974
rradius 32.0569
rwrist -4.49261
rhand -18.1092 9.98444
rfingers 7.12502
rthumb 8.16493 -19.8378
lclavicle -4.29375e-014 1.27222e-014
lhumerus -34.4058 9.02451 79.6986
lradius 20.7251
lwrist -9.93346
lhand -30.2614 21.8912
lfingers 7.12502
lthumb -3.56992 -308.159
rfemur -13.3401 0.812964 30.3238
rtibia 34.1563
rfoot -17.9329 -6.83772
rtoes 15.0835
lfemur -19.1841 11.2224 -16.1207
ltibia 66.3319
lfoot 1.70763 6.30983
ltoes 3.79785
2911
root -3.58819 15.3248 14.6876 1441.07 -135.241 3.76009
lowerback 0.371597 1.701 -0.0793169
upperback -3.58262 2.24375 2.2437
thorax -3.99097 1.11805 2.27377
lowerneck -20.5276 -0.708448 5.0126
upperneck 19.0718 -2.18644 -1.96481
head 9.32173 -0.917992 -1.81287
rclavicle 9.74045e-015 2.14687e-014
rhumerus -33.9229 -8.0747 -82.0361
rradius 32.2561
rwrist -4.67554
rhand -18.2214 10.0713
rfingers 7.12502
rthumb 8.05668 -19.7552
lclavicle 9.74045e-015 2.14687e-014
lhumerus -34.1765 8.86799 80.7748
lradius 20.9952
lwrist -9.5245
lhand -29.5089 21.5403
lfingers 7.12502
lthumb -2.84321 -308.499
rfemur -12.8048 0.975364 30.5523
rtibia 33.9393
rfoot -17.9941 -6.81159
rtoes 14.8519
lfemur -19.7477 10.5937 -15.6996
ltibia 67.4354
lfoot 1.63248 5.49056
ltoes 3.76494
2912
root -3.60659 15.3179 14.667 1440.68 -135.559 3.98233
lowerback 0.607803 1.72469 0.204523
upperback -3.458 2.28869 2.26229
thorax -3.9862 1.13253 2.12665
lowerneck -20.4804 -0.837012 4.88548
upperneck 18.8848 -2.37714 -1.70679
head 9.24637 -0.988793 -1.72462
rclavicle 6.99971e-014 5.56597e-015
rhumerus -33.4662 -7.83608 -82.4741
rradius 32.346
rwrist -4.76836
rhand -18.3115 10.1606
rfingers 7.12502
rthumb 7.96968 -19.6692
lclavicle 6.99971e-014 5.56597e-015
lhumerus -33.9397 8.61753 81.8917
lradius 21.2807
lwrist -9.09365
lhand -28.6831 21.181
lfingers 7.12502
lthumb -2.04562 -308.849
rfemur -12.2859 1.14284 30.7525
rtibia 33.7367
rfoot -18.04 -6.75914
rtoes 14.6179
lfemur -20.2929 9.95083 -15.3269
ltibia 68.3816
lfoot 1.30758 4.75781
ltoes 3.30179
2913
root -3.62577 15.3121 14.6465 1440.3 -135.892 4.18434
lowerback 0.828307 1.7442 0.472064
upperback -3.32798 2.328 2.27471
thorax -3.96692 1.14481 1.98297
lowerneck -20.4442 -0.972783 4.75381
upperneck 18.7022 -2.58101 -1.4298
head 9.17551 -1.06428 -1.63129
rclavicle -7.5886e-014 -1.63003e-014
rhumerus -32.9802 -7.57765 -82.9178
rradius 32.322
rwrist -4.76179
rhand -18.3741 10.2468
rfingers 7.12502
rthumb 7.90924 -19.5852
lclavicle -7.5886e-014 -1.63003e-014
lhumerus -33.6953 8.21984 83.0587
lradius 21.589
lwrist -8.60154
lhand -27.8288 20.7917
lfingers 7.12502
lthumb -1.22057 -309.232
rfemur -11.7834 1.32044 30.9348
rtibia 33.5494
rfoot -18.071 -6.68726
rtoes 14.3587
lfemur -20.8196 9.29737 -14.992
ltibia 69.1633
lfoot 0.767819 4.13332
ltoes 2.51353
2914
root -3.64572 15.3078 14.6259 1440.01 -136.228 4.31553
lowerback 1.01871 1.76158 0.686527
upperback -3.20345 2.36273 2.27404
thorax -3.93759 1.15655 1.85646
lowerneck -20.4029 -1.12132 4.59943
upperneck 18.524 -2.79866 -1.13676
head 9.10647 -1.14651 -1.53084
rclavicle 2.24875e-015 -1.19271e-015
rhumerus -32.4783 -7.31556 -83.3477
rradius 32.1831
rwrist -4.64797
rhand -18.4086 10.3399
rfingers 7.12502
rthumb 7.87596 -19.4934
lclavicle 2.24875e-015 -1.19271e-015
lhumerus -33.4632 7.65052 84.2837
lradius 21.9325
lwrist -8.05215
lhand -26.9343 20.3812
lfingers 7.12502
lthumb -0.356606 -309.639
rfemur -11.3205 1.49334 31.0569
rtibia 33.3841
rfoot -18.0858 -6.59141
rtoes 14.0555
lfemur -21.3482 8.6123 -14.7435
ltibia 69.7755
lfoot 0.0776892 3.66101
ltoes 1.50714
2915
root -3.66663 15.305 14.6049 1439.78 -136.57 4.3903
lowerback 1.17237 1.77779 0.855841
upperback -3.08515 2.39383 2.26456
thorax -3.89515 1.16793 1.74731
lowerneck -20.3521 -1.28092 4.42797
upperneck 18.3492 -3.02583 -0.842573
head 9.03816 -1.23477 -1.42867
rclavicle -5.67406e-014 -3.26007e-014
rhumerus -31.975 -7.019 -83.7702
rradius 31.957
rwrist -4.45813
rhand -18.4155 10.4128
rfingers 7.12502
rthumb 7.86932 -19.4208
lclavicle -5.67406e-014 -3.26007e-014
lhumerus -33.2538 6.8641 85.5767
lradius 22.3232
lwrist -7.40138
lhand -26.0439 19.9422
lfingers 7.12502
lthumb 0.503358 -310.079
rfemur -10.8977 1.66794 31.1313
rtibia 33.2429
rfoot -18.0919 -6.47996
rtoes 13.7237
lfemur -21.8804 7.89969 -14.5667
ltibia 70.2217
lfoot -0.647144 3.30498
ltoes 0.651689
